<svg width="32" height="32" viewBox="0 0 32 32" fill="none" xmlns="http://www.w3.org/2000/svg">
<path d="M20.219 15.2251C20.2434 14.994 20.275 14.8262 20.275 14.6559C20.2798 13.4421 20.2701 12.2282 20.2799 11.0144C20.2871 10.0147 20.652 9.7106 21.8391 9.7106C23.0675 9.7106 24.3008 9.70573 25.5292 9.7106C26.5411 9.71546 26.9011 10.0074 26.9011 10.8441C26.906 14.4443 26.906 18.0444 26.9011 21.6445C26.9011 22.4424 26.1106 22.9191 25.3516 22.5518C25.0792 22.4205 24.887 22.1164 24.7654 21.8561C24.6657 21.6396 24.7095 21.3721 24.7095 21.1264C24.7095 18.2074 24.7095 15.2908 24.7095 12.3718C24.7095 11.6517 24.673 11.6201 23.8362 11.6201C22.4375 11.6201 22.5421 11.5374 22.5397 12.7123C22.5397 14.2813 22.5397 15.8478 22.5397 17.4168C22.5397 17.9349 22.5129 18.4555 21.8123 18.6841C21.1166 18.9128 20.6666 18.5552 20.2385 18.1733C18.3387 16.4803 16.4365 14.7897 14.5343 13.0991C12.688 11.4571 10.8466 9.81276 8.99543 8.17811C8.43352 7.68188 7.87161 7.18808 7.26105 6.73563C6.44129 6.12507 4.7361 6.15913 3.8531 6.70401C2.71468 7.40701 2.25251 8.3265 2.2598 9.48924C2.28656 13.6221 2.25251 17.7525 2.27683 21.8853C2.29143 24.4249 3.49065 26.563 5.79181 28.2123C7.43862 29.3945 9.39193 29.9734 11.6225 29.9613C17.7914 29.9296 23.9578 29.9515 30.1267 29.9564C30.404 29.9564 30.6861 29.9661 30.9586 29.9977C31.5156 30.0634 31.9364 30.4526 31.9705 30.9148C32.0046 31.3526 31.5691 31.8513 31.0437 31.9462C30.8224 31.9851 30.5888 31.99 30.3602 31.99C24.1573 31.9924 17.9592 31.9851 11.7563 31.9997C9.5768 32.0021 7.55538 31.5059 5.73343 30.5694C3.77769 29.5648 2.31818 28.1466 1.30869 26.4049C0.369742 24.78 0.0316226 23.0797 0.0364877 21.2918C0.0486502 17.3779 0.00243251 13.4664 0 9.55248C0 8.29974 0.345417 7.1224 1.2941 6.10561C3.14037 4.11582 6.31237 3.84095 8.54298 5.13018C9.24354 5.53641 9.81518 6.10805 10.4136 6.62617C11.2771 7.37052 12.1139 8.13676 12.9604 8.8957C14.5416 10.3139 16.113 11.7369 17.6965 13.1502C18.4117 13.7875 19.1414 14.4126 19.8663 15.0427C19.9393 15.1035 20.0439 15.14 20.2093 15.2275H20.219V15.2251Z" fill="url(#paint0_linear_1796_37405)"/>
<path d="M11.732 16.6968V19.1463C11.732 19.8834 11.7442 20.618 11.7198 21.355C11.7028 21.9632 11.2723 22.3329 10.5522 22.3426C9.12678 22.3597 7.69647 22.3597 6.27101 22.3426C5.49018 22.3329 5.09854 21.9534 5.09368 21.2358C5.08152 18.9031 5.08395 16.5727 5.08395 14.2399C5.08395 12.958 5.07908 11.6761 5.09611 10.3941C5.10341 9.75195 5.49261 9.39437 6.15182 9.37977C6.74535 9.36761 7.16131 9.63762 7.26105 10.1266C7.29997 10.326 7.2951 10.5352 7.2951 10.7395V19.7398C7.2951 20.4185 7.31456 20.4355 8.11729 20.4331C9.69113 20.4258 9.50382 20.5815 9.51112 19.2801C9.51842 17.7379 9.51112 16.1981 9.51112 14.6583C9.51112 14.4953 9.51112 14.3299 9.52328 14.167C9.55004 13.7729 9.79086 13.4956 10.219 13.3472C10.6398 13.2012 11.0387 13.2742 11.355 13.5394C12.0239 14.0988 12.6807 14.6705 13.3326 15.247C14.0964 15.9208 14.8432 16.6068 15.5997 17.283C17.0154 18.5479 18.4336 19.8128 19.8542 21.0753C21.2845 22.3475 22.7197 23.6173 24.1548 24.887C24.9551 25.5949 25.916 25.8795 27.0836 25.7287C28.2512 25.5803 29.4991 24.493 29.701 23.43C29.7447 23.2013 29.7837 22.9678 29.7837 22.7391C29.7837 18.8666 29.7715 14.994 29.7764 11.1215C29.7764 10.056 29.7642 8.99787 29.4018 7.96162C28.6963 5.93534 27.3585 4.31285 25.1911 3.15741C23.7437 2.3863 22.1967 2.03602 20.4939 2.04089C14.3761 2.05305 8.25594 2.05062 2.13575 2.05305C1.80736 2.05305 1.47897 2.06278 1.15058 2.03602C0.549748 1.99224 0.0681103 1.55682 0.0486502 1.06059C0.0243251 0.518135 0.467042 0.0900135 1.12869 0.0194706C1.30626 1.05421e-05 1.4887 0.00487557 1.67114 0.00487557C7.7889 0.00487557 13.9067 0.0121731 20.0293 1.05428e-05C22.2332 -0.00242197 24.3081 0.41597 26.1714 1.36951C28.1612 2.3863 29.6766 3.79716 30.6934 5.57046C31.6713 7.27322 32.0119 9.05868 31.9997 10.9269C31.9729 14.8408 31.99 18.7547 31.9997 22.6686C31.9997 24.2765 31.3259 25.6606 29.8664 26.6895C28.4531 27.6869 26.7601 27.8961 24.9527 27.5141C23.5224 27.2125 22.6394 26.3198 21.6858 25.5C20.9342 24.853 20.2215 24.1792 19.482 23.5224C18.363 22.5275 17.2319 21.5423 16.1105 20.5499C14.7994 19.3871 13.4956 18.2195 12.1869 17.0543C12.0774 16.957 11.9534 16.8743 11.7296 16.7016L11.732 16.6968Z" fill="url(#paint1_linear_1796_37405)"/>
<defs>
<linearGradient id="paint0_linear_1796_37405" x1="0" y1="15.999" x2="31.9981" y2="15.999" gradientUnits="userSpaceOnUse">
<stop stop-color="#25C4B1"/>
<stop offset="1" stop-color="#27AAE1"/>
</linearGradient>
<linearGradient id="paint1_linear_1796_37405" x1="0.0487022" y1="13.8459" x2="31.9997" y2="13.8459" gradientUnits="userSpaceOnUse">
<stop stop-color="#25C4B1"/>
<stop offset="1" stop-color="#27AAE1"/>
</linearGradient>
</defs>
</svg>
